<?xml version="1.0" standalone="no"?>
<!DOCTYPE svg PUBLIC "-//W3C//DTD SVG 20010904//EN"
 "http://www.w3.org/TR/2001/REC-SVG-20010904/DTD/svg10.dtd">
<svg version="1.0" xmlns="http://www.w3.org/2000/svg"
 width="231.000000pt" height="236.000000pt" viewBox="0 0 231.000000 236.000000"
 preserveAspectRatio="xMidYMid meet">

<g transform="translate(0.000000,236.000000) scale(0.100000,-0.100000)"
fill="#000000" stroke="none">
<path d="M1625 2056 c-42 -43 -55 -77 -55 -144 0 -114 -80 -197 -211 -218
l-39 -7 0 59 c0 87 -23 123 -96 151 -32 13 -90 32 -128 43 -63 18 -72 18 -93
5 -19 -13 -23 -24 -23 -70 0 -35 -5 -57 -13 -62 -21 -12 -44 -52 -62 -108 -19
-57 -177 -375 -238 -480 -97 -165 -286 -367 -473 -504 -22 -15 -58 -49 -82
-74 -46 -51 -54 -90 -28 -150 17 -40 80 -103 126 -127 80 -40 209 -51 317 -25
131 31 484 211 1061 542 127 73 234 133 236 133 2 0 35 17 73 39 37 21 106 59
153 83 47 25 105 56 129 69 47 26 81 70 81 107 0 36 -36 95 -73 120 -34 22
-35 25 -39 101 -4 65 -11 90 -44 157 -38 78 -87 133 -249 285 -28 26 -64 63
-81 83 -26 30 -38 36 -69 36 -32 0 -45 -7 -80 -44z m116 1 c8 -7 24 -27 34
-44 l19 -33 -26 -27 c-33 -34 -58 -92 -58 -133 0 -17 18 -95 40 -172 22 -78
40 -148 40 -155 0 -7 -42 -44 -92 -82 -160 -119 -240 -206 -297 -318 -30 -59
-36 -64 -139 -124 -59 -34 -132 -75 -162 -92 -30 -17 -72 -41 -92 -54 -21 -13
-40 -23 -42 -23 -3 0 -71 -39 -153 -86 -314 -182 -407 -219 -545 -212 -74 3
-93 -12 -31 -25 82 -18 214 9 338 70 62 30 1056 597 1367 779 97 57 182 104
190 104 42 -1 98 -64 98 -110 0 -14 -8 -35 -18 -47 -14 -18 -176 -111 -297
-171 -16 -8 -93 -51 -170 -95 -77 -44 -167 -94 -200 -112 -33 -17 -141 -78
-240 -135 -215 -124 -658 -349 -735 -374 -75 -24 -204 -32 -271 -16 -128 31
-221 140 -190 222 9 24 38 51 222 205 41 34 98 84 127 111 l54 49 126 -5 c139
-5 225 10 289 49 45 28 58 58 72 158 14 104 35 151 144 319 48 73 87 135 87
137 0 3 -7 5 -15 5 -17 0 -175 -235 -211 -315 -13 -27 -30 -93 -38 -145 -14
-83 -19 -98 -45 -122 -43 -39 -90 -50 -226 -55 -142 -5 -159 2 -124 45 13 17
40 53 59 80 l35 50 84 14 c51 8 86 18 89 26 3 11 -10 12 -67 6 -81 -8 -87 -1
-48 57 21 32 28 35 102 44 60 7 80 14 80 25 0 8 -4 14 -10 13 -5 0 -37 -4 -69
-8 -55 -7 -59 -6 -52 11 5 11 13 31 18 47 10 28 15 30 112 44 34 4 61 14 64
21 3 11 -10 12 -67 6 -40 -4 -71 -3 -71 2 0 5 11 25 24 44 22 32 29 36 101 47
83 14 90 16 81 31 -3 5 -30 5 -66 -1 -33 -5 -63 -7 -66 -4 -9 9 52 176 72 198
19 21 67 25 110 8 16 -5 51 -32 80 -59 77 -73 145 -86 258 -49 111 36 176 118
176 219 0 65 12 100 45 136 34 36 68 43 96 21z m134 -138 c100 -82 215 -224
201 -247 -3 -6 -27 -22 -54 -38 -26 -15 -80 -49 -121 -76 -40 -27 -74 -48 -76
-46 -7 8 -57 181 -69 241 -12 58 -13 75 -1 114 12 41 49 93 64 93 4 0 29 -19
56 -41z m-746 -19 c132 -37 161 -66 161 -155 0 -41 -2 -45 -24 -45 -15 0 -45
19 -78 48 -62 57 -90 74 -138 81 -27 5 -36 12 -38 30 -6 40 7 74 26 68 9 -3
50 -15 91 -27z m977 -295 c20 -48 18 -118 -3 -144 -19 -21 -664 -394 -671
-387 -11 12 63 120 130 188 28 29 163 137 223 178 20 14 42 30 48 35 22 19
242 161 255 164 2 1 10 -15 18 -34z"/>
<path d="M1567 1663 c-72 -48 -75 -67 -7 -39 11 5 24 -7 44 -39 36 -57 53 -72
67 -58 8 8 0 26 -25 62 -42 59 -43 66 -16 81 11 6 20 15 20 20 0 19 -27 10
-83 -27z"/>
<path d="M1380 1513 c-34 -23 -40 -33 -40 -68 0 -64 56 -104 117 -84 61 20 73
90 24 140 -33 33 -65 37 -101 12z m79 -37 c17 -20 10 -67 -11 -79 -12 -8 -24
-7 -42 1 -20 9 -26 19 -26 45 0 19 3 37 7 40 12 12 60 7 72 -7z"/>
<path d="M1194 1314 c-19 -19 -34 -38 -34 -42 1 -7 89 -78 118 -96 24 -14 38
10 19 32 -15 16 -15 21 -2 38 20 27 18 61 -5 84 -29 29 -58 25 -96 -16z m73
-20 c3 -8 -2 -23 -11 -32 -15 -15 -17 -15 -33 0 -13 14 -14 20 -3 32 16 20 39
20 47 0z"/>
<path d="M1081 1151 c-31 -31 -28 -79 5 -91 27 -11 51 -3 74 24 18 23 30 20
30 -9 0 -15 -6 -25 -14 -25 -19 0 -31 -19 -19 -31 18 -18 61 7 68 40 14 65
-43 95 -92 49 -17 -16 -26 -19 -34 -11 -8 8 -5 17 9 31 17 17 18 23 7 32 -11
9 -18 7 -34 -9z"/>
<path d="M827 912 c-35 -38 -14 -92 36 -92 18 0 38 4 46 9 21 13 5 29 -24 23
-14 -2 -25 0 -25 6 0 6 10 12 23 14 16 2 22 10 22 28 0 21 -5 26 -31 28 -20 2
-36 -3 -47 -16z m48 -22 c-3 -5 -13 -10 -21 -10 -8 0 -12 5 -9 10 3 6 13 10
21 10 8 0 12 -4 9 -10z"/>
<path d="M656 847 c-29 -29 -25 -60 10 -83 18 -13 27 -13 46 -3 39 21 49 51
26 81 -24 30 -56 31 -82 5z m52 -43 c-4 -25 -32 -24 -36 0 -4 21 18 40 31 27
5 -5 7 -17 5 -27z"/>
<path d="M500 819 c0 -6 5 -20 11 -31 10 -18 8 -25 -11 -40 -23 -19 -24 -19
-46 9 -16 21 -26 25 -34 17 -8 -8 0 -27 30 -74 31 -46 45 -59 53 -51 9 9 8 17
-1 32 -11 18 -11 24 4 40 22 25 41 24 49 -1 6 -18 45 -30 45 -14 0 3 -17 32
-37 65 -35 53 -63 75 -63 48z"/>
<path d="M286 668 c-20 -29 -20 -34 4 -58 18 -18 22 -18 54 -5 23 10 37 11 41
4 9 -14 -14 -39 -37 -39 -11 0 -18 -5 -15 -12 6 -19 57 -12 73 9 19 25 17 47
-6 68 -17 15 -24 16 -46 7 -33 -16 -44 -15 -44 2 0 7 9 16 20 19 28 7 25 27
-4 27 -14 0 -32 -10 -40 -22z"/>
<path d="M1550 755 c0 -13 42 -15 320 -15 278 0 320 2 320 15 0 13 -42 15
-320 15 -278 0 -320 -2 -320 -15z"/>
<path d="M1270 560 c0 -20 5 -20 457 -18 427 3 458 4 461 21 3 16 -24 17 -457
17 -455 0 -461 0 -461 -20z"/>
<path d="M1012 373 c3 -17 39 -18 588 -18 549 0 585 1 588 18 3 16 -30 17
-588 17 -558 0 -591 -1 -588 -17z"/>
</g>
</svg>
